# xmcd CD database file
#
# Track frame offsets:
#	150
#	21243
#	37283
#	58959
#	79770
#	95488
#	114600
#	130587
#	150015
#	167197
#	185240
#	205209
#	225482
#	242460
#	262419
#	281783
#	295877
#
# Disc length: 4203 seconds
#
# Revision: 6
# Processed by: cddbd v1.5.2PL0 Copyright (c) Steve Scherf et al.
# Submitted via: CDex 1.51
#
DISCID=fa106911
DTITLE=Mariah Carey - Best Ballads
DYEAR=1992
DGENRE=R&B
TTITLE0=One Sweet Day (feat. Boyz 2 Men)
TTITLE1=Without You
TTITLE2=I Don't Wanna Cry
TTITLE3=If It's Over
TTITLE4=Vision Of Love
TTITLE5=So Blessed
TTITLE6=Open Arms
TTITLE7=Endless Love (feat. L.Vandross)
TTITLE8=Love Takes Time
TTITLE9=Forever
TTITLE10=Anytime You Need A Friend
TTITLE11=Can't Let Go
TTITLE12=Never Forget You
TTITLE13=And You Don't Remember
TTITLE14=Hero
TTITLE15=I Am Free
TTITLE16=I'll Be There (feat. Trey Lorenz)
EXTD=1992 - Sony Music YEAR: 1992
EXTT0=
EXTT1=
EXTT2=
EXTT3=
EXTT4=
EXTT5=
EXTT6=
EXTT7=
EXTT8=
EXTT9=
EXTT10=
EXTT11=
EXTT12=
EXTT13=
EXTT14=
EXTT15=
EXTT16=
PLAYORDER=
